ply
format ascii 1.0
element vertex 585
property int frame
property float dx
property float dy
property float dz
end_header
0	0.000	0.000	0.000
1	-0.000	-0.006	0.000
2	0.006	0.000	0.000
3	0.017	0.000	0.000
4	0.017	0.000	0.000
5	0.006	0.000	0.000
6	0.023	0.012	0.000
7	0.046	0.018	0.000
8	0.029	0.018	0.000
9	0.011	0.006	0.000
10	0.063	0.024	0.000
11	0.045	0.024	0.000
12	0.108	0.053	0.000
13	0.057	0.018	0.000
14	0.107	0.041	0.000
15	0.096	0.041	0.000
16	0.113	0.041	0.000
17	0.090	0.035	0.000
18	0.146	0.047	0.000
19	0.101	0.029	0.000
20	0.101	0.024	0.000
21	0.106	0.029	0.000
22	0.095	0.018	0.000
23	0.017	0.006	0.000
24	0.100	0.024	0.000
25	0.089	0.023	0.000
26	0.050	0.012	0.000
27	0.056	0.012	0.000
28	0.033	0.012	0.000
29	0.050	0.017	0.000
30	0.028	0.012	0.000
31	0.038	0.023	0.000
32	0.022	0.011	0.000
33	0.027	0.023	0.000
34	0.027	0.017	0.000
35	0.027	0.028	0.000
36	0.022	0.023	0.000
37	0.043	0.045	0.000
38	0.027	0.028	0.000
39	0.011	0.006	0.000
40	0.032	0.034	0.000
41	0.032	0.034	0.000
42	0.011	0.006	0.000
43	0.027	0.028	0.000
44	0.043	0.039	0.000
45	0.038	0.034	0.000
46	0.005	0.011	0.000
47	0.048	0.039	0.000
48	0.032	0.034	0.000
49	0.037	0.034	0.000
50	0.048	0.050	0.000
51	0.026	0.039	0.000
52	0.037	0.044	0.000
53	0.021	0.033	0.000
54	0.020	0.039	0.000
55	0.005	0.000	0.000
56	0.015	0.039	0.000
57	0.020	0.044	0.000
58	0.010	0.033	0.000
59	0.009	0.038	0.000
60	0.008	0.060	0.000
61	0.010	0.033	0.000
62	0.004	0.038	0.000
63	0.004	0.044	0.000
64	-0.001	0.033	0.000
65	0.004	0.043	0.000
66	-0.001	0.033	0.000
67	0.004	0.043	0.000
68	-0.002	0.043	0.000
69	0.004	0.032	0.000
70	-0.002	0.038	0.000
71	-0.002	0.049	0.000
72	-0.001	0.032	0.000
73	-0.013	0.054	0.000
74	-0.012	0.038	0.000
75	-0.000	0.011	0.000
76	-0.013	0.048	0.000
77	-0.013	0.043	0.000
78	-0.024	0.048	0.000
79	-0.007	0.037	0.000
80	-0.017	0.032	0.000
81	-0.000	0.011	0.000
82	-0.005	-0.000	0.000
83	-0.018	0.053	0.000
84	-0.012	0.037	0.000
85	-0.018	0.037	0.000
86	-0.012	0.032	0.000
87	-0.018	0.042	0.000
88	-0.000	0.005	0.000
89	-0.012	0.032	0.000
90	-0.012	0.021	0.000
91	-0.017	0.032	0.000
92	-0.000	0.005	0.000
93	-0.012	0.021	0.000
94	-0.023	0.037	0.000
95	-0.012	0.026	0.000
96	-0.006	0.005	0.000
97	-0.028	0.042	0.000
98	-0.017	0.021	0.000
99	-0.017	0.021	0.000
100	-0.033	0.031	0.000
101	-0.017	0.016	0.000
102	-0.017	0.021	0.000
103	-0.022	0.021	0.000
104	-0.016	0.010	0.000
105	-0.017	0.021	0.000
106	-0.016	0.010	0.000
107	-0.017	0.016	0.000
108	-0.016	0.005	0.000
109	-0.022	0.016	0.000
110	-0.016	0.010	0.000
111	-0.032	0.010	0.000
112	-0.022	0.010	0.000
113	-0.027	0.010	0.000
114	-0.032	0.005	0.000
115	-0.038	0.010	0.000
116	-0.038	0.005	0.000
117	-0.038	0.010	0.000
118	-0.043	0.010	0.000
119	-0.027	0.005	0.000
120	-0.043	0.010	0.000
121	-0.038	0.005	0.000
122	-0.021	0.005	0.000
123	-0.038	0.005	0.000
124	-0.021	0.000	0.000
125	-0.016	0.000	0.000
126	-0.016	0.000	0.000
127	-0.027	0.000	0.000
128	-0.016	0.000	0.000
129	-0.022	0.005	0.000
130	-0.021	0.000	0.000
131	-0.016	0.000	0.000
132	-0.027	0.000	0.000
133	-0.021	0.000	0.000
134	-0.016	0.000	0.000
135	-0.027	0.000	0.000
136	-0.016	0.000	0.000
137	-0.005	0.000	0.000
138	-0.016	0.000	0.000
139	-0.016	0.000	0.000
140	-0.011	0.000	0.000
141	-0.016	0.000	0.000
142	-0.011	0.000	0.000
143	-0.005	0.000	0.000
144	-0.021	0.000	0.000
145	-0.005	0.000	0.000
146	-0.016	-0.005	0.000
147	-0.021	-0.005	0.000
148	-0.021	-0.010	0.000
149	-0.027	-0.010	0.000
150	-0.021	-0.005	0.000
151	-0.016	-0.005	0.000
152	-0.021	-0.010	0.000
153	-0.027	-0.010	0.000
154	-0.021	-0.005	0.000
155	-0.016	-0.010	0.000
156	-0.016	-0.005	0.000
157	-0.016	-0.005	0.000
158	-0.021	-0.010	0.000
159	-0.021	-0.005	0.000
160	-0.016	-0.010	0.000
161	-0.032	-0.016	0.000
162	-0.021	-0.010	0.000
163	-0.021	-0.016	0.000
164	-0.021	-0.021	0.000
165	-0.021	-0.016	0.000
166	-0.021	-0.021	0.000
167	-0.027	-0.031	0.000
168	-0.021	-0.026	0.000
169	-0.021	-0.037	0.000
170	-0.016	-0.032	0.000
171	-0.021	-0.037	0.000
172	-0.021	-0.042	0.000
173	-0.011	-0.026	0.000
174	-0.005	-0.005	0.000
175	-0.011	-0.026	0.000
176	-0.011	-0.027	0.000
177	-0.011	-0.027	0.000
178	-0.011	-0.037	0.000
179	-0.005	-0.032	0.000
180	-0.011	-0.027	0.000
181	-0.005	-0.027	0.000
182	-0.011	-0.048	0.000
183	0.000	-0.032	0.000
184	-0.005	-0.037	0.000
185	0.000	-0.043	0.000
186	-0.005	-0.038	0.000
187	0.000	-0.011	0.000
188	0.000	-0.065	0.000
189	0.000	-0.054	0.000
190	0.000	-0.059	0.000
191	0.012	-0.108	0.000
192	0.006	-0.065	0.000
193	0.017	-0.076	0.000
194	0.006	-0.066	0.000
195	0.023	-0.088	0.000
196	0.011	-0.055	0.000
197	0.017	-0.055	0.000
198	0.011	-0.055	0.000
199	0.017	-0.044	0.000
200	0.017	-0.039	0.000
201	0.017	-0.044	0.000
202	0.023	-0.039	0.000
203	0.028	-0.050	0.000
204	0.011	-0.033	0.000
205	0.028	-0.044	0.000
206	0.017	-0.039	0.000
207	0.028	-0.045	0.000
208	0.023	-0.028	0.000
209	0.034	-0.056	0.000
210	0.028	-0.039	0.000
211	0.034	-0.045	0.000
212	0.028	-0.034	0.000
213	0.046	-0.062	0.000
214	0.023	-0.022	0.000
215	0.028	-0.034	0.000
216	0.006	-0.006	0.000
217	0.023	-0.022	0.000
218	0.028	-0.022	0.000
219	0.023	-0.017	0.000
220	0.034	-0.028	0.000
221	0.017	-0.011	0.000
222	0.023	-0.017	0.000
223	0.023	-0.011	0.000
224	0.017	-0.017	0.000
225	0.034	-0.022	0.000
226	0.017	-0.011	0.000
227	0.023	-0.017	0.000
228	0.023	-0.011	0.000
229	0.017	-0.011	0.000
230	0.006	-0.006	0.000
231	0.023	-0.011	0.000
232	0.023	-0.017	0.000
233	0.034	-0.011	0.000
234	0.039	-0.011	0.000
235	0.045	-0.022	0.000
236	0.034	-0.017	0.000
237	0.051	-0.011	0.000
238	0.006	0.000	0.000
239	0.028	-0.011	0.000
240	0.040	-0.017	0.000
241	0.039	-0.011	0.000
242	0.045	-0.011	0.000
243	0.028	-0.005	0.000
244	0.040	-0.017	0.000
245	0.023	-0.006	0.000
246	0.028	0.000	0.000
247	0.028	-0.011	0.000
248	0.028	-0.005	0.000
249	0.023	-0.011	0.000
250	0.028	-0.005	0.000
251	0.017	0.000	0.000
252	0.034	-0.005	0.000
253	0.023	-0.006	0.000
254	0.034	-0.005	0.000
255	0.022	0.000	0.000
256	0.028	-0.005	0.000
257	0.017	0.000	0.000
258	0.022	0.000	0.000
259	0.022	0.000	0.000
260	0.017	0.000	0.000
261	0.017	-0.006	0.000
262	0.028	0.000	0.000
263	0.034	0.000	0.000
264	0.034	0.000	0.000
265	0.017	-0.006	0.000
266	0.033	0.000	0.000
267	0.028	-0.005	0.000
268	0.045	-0.005	0.000
269	0.039	0.000	0.000
270	0.028	-0.005	0.000
271	0.006	0.000	0.000
272	0.045	-0.005	0.000
273	0.028	0.000	0.000
274	0.034	-0.005	0.000
275	0.033	0.000	0.000
276	0.017	-0.006	0.000
277	0.006	0.000	0.000
278	0.028	0.000	0.000
279	0.011	0.000	0.000
280	0.022	0.000	0.000
281	0.017	0.000	0.000
282	0.017	0.000	0.000
283	0.006	0.000	0.000
284	0.022	0.000	0.000
285	0.022	0.000	0.000
286	0.017	0.000	0.000
287	0.022	0.006	0.000
288	0.022	0.006	0.000
289	0.028	0.006	0.000
290	0.028	0.006	0.000
291	0.028	0.006	0.000
292	0.038	0.012	0.000
293	0.027	0.012	0.000
294	-0.000	0.006	0.000
295	0.027	0.006	0.000
296	0.044	0.017	0.000
297	0.027	0.017	0.000
298	0.006	0.000	0.000
299	0.027	0.012	0.000
300	0.022	0.012	0.000
301	0.005	0.006	0.000
302	0.022	0.012	0.000
303	0.027	0.017	0.000
304	0.027	0.012	0.000
305	0.021	0.023	0.000
306	0.027	0.017	0.000
307	0.032	0.023	0.000
308	0.032	0.029	0.000
309	0.021	0.023	0.000
310	0.042	0.034	0.000
311	0.026	0.023	0.000
312	0.031	0.028	0.000
313	0.031	0.034	0.000
314	0.031	0.034	0.000
315	0.041	0.056	0.000
316	0.025	0.039	0.000
317	0.005	0.006	0.000
318	0.020	0.034	0.000
319	0.005	0.006	0.000
320	0.030	0.039	0.000
321	0.015	0.028	0.000
322	0.010	0.017	0.000
323	0.025	0.045	0.000
324	0.015	0.022	0.000
325	0.014	0.039	0.000
326	0.020	0.033	0.000
327	0.020	0.033	0.000
328	0.009	0.033	0.000
329	0.020	0.033	0.000
330	0.005	0.011	0.000
331	0.009	0.033	0.000
332	0.024	0.050	0.000
333	0.008	0.038	0.000
334	0.019	0.044	0.000
335	0.014	0.027	0.000
336	0.008	0.044	0.000
337	0.009	0.033	0.000
338	0.008	0.038	0.000
339	0.008	0.038	0.000
340	0.002	0.044	0.000
341	-0.001	0.011	0.000
342	0.004	0.022	0.000
343	0.003	0.038	0.000
344	0.003	0.038	0.000
345	-0.003	0.038	0.000
346	-0.002	0.027	0.000
347	-0.002	0.032	0.000
348	0.004	0.027	0.000
349	-0.004	0.054	0.000
350	-0.003	0.038	0.000
351	-0.002	0.032	0.000
352	-0.001	0.011	0.000
353	-0.002	0.032	0.000
354	-0.000	0.005	0.000
355	-0.003	0.043	0.000
356	-0.003	0.037	0.000
357	-0.003	0.043	0.000
358	-0.007	0.027	0.000
359	-0.009	0.048	0.000
360	-0.007	0.032	0.000
361	-0.007	0.032	0.000
362	-0.000	0.005	0.000
363	-0.007	0.027	0.000
364	-0.013	0.037	0.000
365	-0.012	0.026	0.000
366	-0.007	0.026	0.000
367	-0.000	0.005	0.000
368	-0.007	0.021	0.000
369	-0.012	0.026	0.000
370	-0.007	0.021	0.000
371	-0.007	0.021	0.000
372	-0.012	0.021	0.000
373	-0.012	0.026	0.000
374	-0.012	0.026	0.000
375	-0.012	0.016	0.000
376	-0.006	0.005	0.000
377	-0.012	0.021	0.000
378	-0.012	0.021	0.000
379	-0.000	0.005	0.000
380	-0.017	0.016	0.000
381	-0.012	0.021	0.000
382	-0.018	0.026	0.000
383	-0.012	0.016	0.000
384	-0.017	0.016	0.000
385	-0.018	0.026	0.000
386	-0.012	0.016	0.000
387	-0.017	0.021	0.000
388	-0.011	0.010	0.000
389	-0.023	0.026	0.000
390	-0.006	0.005	0.000
391	-0.012	0.026	0.000
392	-0.022	0.021	0.000
393	-0.017	0.016	0.000
394	-0.017	0.026	0.000
395	-0.028	0.021	0.000
396	-0.022	0.021	0.000
397	-0.017	0.016	0.000
398	-0.028	0.021	0.000
399	-0.017	0.016	0.000
400	-0.022	0.016	0.000
401	-0.011	0.016	0.000
402	-0.022	0.016	0.000
403	-0.011	0.010	0.000
404	-0.022	0.016	0.000
405	-0.011	0.010	0.000
406	-0.006	0.005	0.000
407	-0.016	0.010	0.000
408	-0.017	0.015	0.000
409	-0.016	0.010	0.000
410	-0.016	0.010	0.000
411	-0.005	0.000	0.000
412	-0.011	0.015	0.000
413	-0.021	0.005	0.000
414	-0.017	0.015	0.000
415	-0.005	0.000	0.000
416	-0.016	0.010	0.000
417	-0.032	0.010	0.000
418	-0.016	0.010	0.000
419	-0.021	0.005	0.000
420	-0.022	0.010	0.000
421	-0.022	0.010	0.000
422	-0.027	0.005	0.000
423	-0.006	0.005	0.000
424	-0.021	0.000	0.000
425	-0.021	0.005	0.000
426	-0.011	0.005	0.000
427	-0.016	0.005	0.000
428	-0.016	0.005	0.000
429	-0.016	0.005	0.000
430	-0.016	0.005	0.000
431	-0.021	0.000	0.000
432	-0.021	0.005	0.000
433	-0.027	0.005	0.000
434	-0.037	0.010	0.000
435	-0.037	0.005	0.000
436	-0.042	0.005	0.000
437	-0.042	0.005	0.000
438	-0.058	0.000	0.000
439	-0.048	0.000	0.000
440	-0.069	0.005	0.000
441	-0.037	0.000	0.000
442	-0.005	0.000	0.000
443	-0.011	0.000	0.000
444	-0.048	0.000	0.000
445	-0.048	0.005	0.000
446	-0.058	0.005	0.000
447	-0.037	0.000	0.000
448	-0.053	0.000	0.000
449	-0.032	0.000	0.000
450	-0.042	0.000	0.000
451	-0.005	0.000	0.000
452	-0.026	0.000	0.000
453	-0.032	0.000	0.000
454	-0.021	-0.005	0.000
455	-0.005	0.000	0.000
456	-0.036	-0.020	0.000
457	-0.021	-0.010	0.000
458	-0.026	-0.010	0.000
459	-0.021	-0.015	0.000
460	-0.031	-0.015	0.000
461	-0.016	-0.010	0.000
462	-0.016	-0.005	0.000
463	-0.015	-0.015	0.000
464	-0.021	-0.015	0.000
465	-0.021	-0.005	0.000
466	-0.026	-0.026	0.000
467	-0.021	-0.010	0.000
468	-0.042	-0.036	0.000
469	-0.026	-0.026	0.000
470	-0.042	-0.041	0.000
471	-0.021	-0.026	0.000
472	-0.026	-0.042	0.000
473	-0.016	-0.021	0.000
474	-0.021	-0.026	0.000
475	-0.005	-0.016	0.000
476	0.000	-0.005	0.000
477	-0.010	-0.016	0.000
478	-0.010	-0.016	0.000
479	-0.010	-0.021	0.000
480	-0.005	-0.010	0.000
481	-0.005	-0.031	0.000
482	-0.005	-0.021	0.000
483	-0.004	-0.037	0.000
484	0.000	-0.011	0.000
485	-0.005	-0.026	0.000
486	0.000	-0.005	0.000
487	-0.005	-0.032	0.000
488	-0.004	-0.037	0.000
489	0.001	-0.042	0.000
490	0.001	-0.021	0.000
491	0.001	-0.026	0.000
492	0.000	-0.005	0.000
493	0.001	-0.021	0.000
494	0.001	-0.026	0.000
495	0.000	-0.016	0.000
496	0.001	-0.032	0.000
497	0.000	-0.016	0.000
498	0.001	-0.037	0.000
499	0.017	-0.043	0.000
500	0.023	-0.048	0.000
501	0.006	-0.037	0.000
502	0.023	-0.053	0.000
503	0.012	-0.037	0.000
504	0.017	-0.043	0.000
505	0.011	-0.016	0.000
506	0.012	-0.038	0.000
507	0.011	-0.011	0.000
508	0.017	-0.032	0.000
509	0.006	-0.011	0.000
510	0.017	-0.022	0.000
511	0.017	-0.027	0.000
512	0.023	-0.032	0.000
513	0.023	-0.027	0.000
514	0.028	-0.038	0.000
515	0.022	-0.022	0.000
516	0.040	-0.049	0.000
517	0.022	-0.022	0.000
518	0.028	-0.027	0.000
519	0.011	-0.011	0.000
520	0.023	-0.022	0.000
521	0.006	-0.005	0.000
522	0.006	-0.005	0.000
523	0.005	0.000	0.000
524	0.000	-0.005	0.000
525	0.006	-0.005	0.000
526	0.005	0.000	0.000
527	0.017	-0.011	0.000
528	0.000	-0.005	0.000
529	0.022	-0.005	0.000
530	0.028	-0.011	0.000
531	0.017	-0.011	0.000
532	0.033	-0.011	0.000
533	0.022	0.000	0.000
534	0.028	-0.011	0.000
535	0.017	-0.005	0.000
536	0.039	-0.016	0.000
537	0.011	0.000	0.000
538	0.028	-0.005	0.000
539	0.017	-0.005	0.000
540	0.028	-0.005	0.000
541	0.028	-0.005	0.000
542	0.033	-0.011	0.000
543	0.028	-0.005	0.000
544	0.055	-0.005	0.000
545	0.033	-0.011	0.000
546	0.005	0.000	0.000
547	0.038	-0.005	0.000
548	0.033	0.000	0.000
549	0.044	0.000	0.000
550	0.005	0.000	0.000
551	0.022	0.000	0.000
552	0.038	-0.005	0.000
553	0.011	0.000	0.000
554	0.022	0.000	0.000
555	0.027	0.000	0.000
556	0.022	0.000	0.000
557	0.033	0.000	0.000
558	0.022	-0.005	0.000
559	0.038	0.000	0.000
560	0.022	0.000	0.000
561	0.033	0.000	0.000
562	0.027	0.000	0.000
563	0.022	0.000	0.000
564	0.011	0.006	0.000
565	0.032	0.006	0.000
566	0.011	0.000	0.000
567	0.021	0.011	0.000
568	0.016	0.006	0.000
569	0.027	0.006	0.000
570	0.021	0.006	0.000
571	0.037	0.011	0.000
572	0.021	0.006	0.000
573	0.032	0.011	0.000
574	0.022	0.000	0.000
575	0.027	0.011	0.000
576	0.011	0.000	0.000
577	0.016	0.011	0.000
578	0.005	0.000	0.000
579	0.011	0.005	0.000
580	0.005	0.005	0.000
581	0.005	0.000	0.000
582	0.005	0.000	0.000
583	0.005	0.000	0.000
584	0.000	0.000	0.000
