ply
format ascii 1.0
element vertex 729
property float x
property float y
property float z
end_header
0.1 0.54999 0.1
0.1 0.54999 0.15
0.15 0.54999 0.1
0.15 0.54999 0.15
0.2 0.54999 0.1
0.2 0.54999 0.15
0.1 0.59999 0.15
0.1 0.59999 0.1
0.1 0.64999 0.15
0.15 0.59999 0.1
0.15 0.64999 0.15
0.1 0.64999 0.1
0.15 0.64999 0.1
0.15 0.59999 0.15
0.2 0.64999 0.15
0.2 0.64999 0.1
0.2 0.59999 0.15
0.2 0.59999 0.1
0.15 0.54999 0.2
0.1 0.54999 0.2
0.2 0.54999 0.2
0.15 0.59999 0.2
0.15 0.64999 0.2
0.1 0.64999 0.2
0.1 0.59999 0.2
0.2 0.59999 0.2
0.2 0.64999 0.2
0.1 0.74999 0.15
0.1 0.74999 0.1
0.1 0.69999 0.15
0.1 0.69999 0.1
0.15 0.74999 0.1
0.15 0.69999 0.15
0.15 0.74999 0.15
0.15 0.69999 0.1
0.2 0.69999 0.15
0.2 0.74999 0.15
0.2 0.74999 0.1
0.2 0.69999 0.1
0.15 0.79999 0.15
0.1 0.79999 0.15
0.1 0.79999 0.1
0.15 0.84999 0.1
0.1 0.84999 0.1
0.15 0.84999 0.15
0.1 0.84999 0.15
0.15 0.79999 0.1
0.2 0.79999 0.15
0.2 0.79999 0.1
0.2 0.84999 0.15
0.2 0.84999 0.1
0.15 0.74999 0.2
0.1 0.74999 0.2
0.1 0.69999 0.2
0.15 0.69999 0.2
0.2 0.74999 0.2
0.2 0.69999 0.2
0.15 0.79999 0.2
0.1 0.79999 0.2
0.1 0.84999 0.2
0.15 0.84999 0.2
0.2 0.79999 0.2
0.2 0.84999 0.2
0.1 0.94999 0.1
0.15 0.89999 0.15
0.15 0.89999 0.1
0.1 0.89999 0.15
0.1 0.94999 0.15
0.1 0.89999 0.1
0.15 0.94999 0.15
0.15 0.94999 0.1
0.2 0.94999 0.15
0.2 0.89999 0.15
0.2 0.94999 0.1
0.2 0.89999 0.1
0.15 0.94999 0.2
0.1 0.94999 0.2
0.1 0.89999 0.2
0.15 0.89999 0.2
0.2 0.94999 0.2
0.2 0.89999 0.2
0.15 0.54999 -0.2
0.1 0.54999 -0.2
0.2 0.54999 -0.2
0.15 0.64999 -0.2
0.1 0.64999 -0.2
0.1 0.59999 -0.2
0.15 0.59999 -0.2
0.2 0.64999 -0.2
0.2 0.59999 -0.2
0.1 0.54999 -0.1
0.1 0.54999 -0.15
0.15 0.54999 -0.15
0.15 0.54999 -0.1
0.2 0.54999 -0.1
0.2 0.54999 -0.15
0.15 0.64999 -0.1
0.1 0.64999 -0.15
0.15 0.59999 -0.15
0.15 0.64999 -0.15
0.1 0.59999 -0.15
0.15 0.59999 -0.1
0.1 0.59999 -0.1
0.1 0.64999 -0.1
0.2 0.59999 -0.1
0.2 0.59999 -0.15
0.2 0.64999 -0.1
0.2 0.64999 -0.15
0.1 0.69999 -0.2
0.15 0.69999 -0.2
0.15 0.74999 -0.2
0.1 0.74999 -0.2
0.2 0.74999 -0.2
0.2 0.69999 -0.2
0.15 0.84999 -0.2
0.1 0.79999 -0.2
0.15 0.79999 -0.2
0.1 0.84999 -0.2
0.2 0.84999 -0.2
0.2 0.79999 -0.2
0.1 0.69999 -0.1
0.15 0.69999 -0.1
0.15 0.69999 -0.15
0.1 0.69999 -0.15
0.15 0.74999 -0.1
0.1 0.74999 -0.15
0.1 0.74999 -0.1
0.15 0.74999 -0.15
0.2 0.69999 -0.1
0.2 0.74999 -0.15
0.2 0.74999 -0.1
0.2 0.69999 -0.15
0.1 0.84999 -0.15
0.1 0.84999 -0.1
0.1 0.79999 -0.1
0.15 0.79999 -0.15
0.1 0.79999 -0.15
0.15 0.84999 -0.15
0.15 0.79999 -0.1
0.15 0.84999 -0.1
0.2 0.84999 -0.15
0.2 0.84999 -0.1
0.2 0.79999 -0.1
0.2 0.79999 -0.15
0.15 0.54999 -0.05
0.1 0.54999 -0.05
0.2 0.54999 -0.05
0.15 0.64999 -0.05
0.1 0.59999 -0.05
0.15 0.59999 -0.05
0.1 0.64999 -0.05
0.2 0.59999 -0.05
0.2 0.64999 -0.05
0.15 0.54999 -1.0027e-13
0.15 0.54999 0.05
0.1 0.54999 3.62082e-14
0.1 0.54999 0.05
0.2 0.54999 0.05
0.2 0.54999 -4.10236e-14
0.1 0.64999 0.05
0.15 0.64999 -1.05898e-13
0.15 0.64999 0.05
0.1 0.59999 0.05
0.1 0.64999 -9.29179e-15
0.15 0.59999 -2.05051e-13
0.1 0.59999 -7.96672e-14
0.15 0.59999 0.05
0.2 0.64999 0.05
0.2 0.64999 9.44078e-15
0.2 0.59999 0.05
0.2 0.59999 -1.46434e-13
0.15 0.69999 -0.05
0.15 0.74999 -0.05
0.1 0.69999 -0.05
0.1 0.74999 -0.05
0.2 0.74999 -0.05
0.2 0.69999 -0.05
0.15 0.79999 -0.05
0.15 0.84999 -0.05
0.1 0.84999 -0.05
0.1 0.79999 -0.05
0.2 0.79999 -0.05
0.2 0.84999 -0.05
0.1 0.69999 0.05
0.15 0.74999 0.05
0.15 0.69999 -9.22226e-14
0.1 0.74999 -1.10662e-14
0.1 0.74999 0.05
0.15 0.74999 -1.05879e-13
0.15 0.69999 0.05
0.1 0.69999 7.62764e-15
0.2 0.69999 0.05
0.2 0.74999 0.05
0.2 0.69999 -8.97034e-15
0.2 0.74999 1.30142e-14
0.1 0.84999 0.05
0.1 0.84999 -9.92513e-15
0.1 0.79999 0.05
0.1 0.79999 8.84517e-15
0.15 0.84999 0.05
0.15 0.84999 -1.05717e-13
0.15 0.79999 0.05
0.15 0.79999 -9.22228e-14
0.2 0.84999 1.08726e-14
0.2 0.79999 0.05
0.2 0.79999 -1.04025e-14
0.2 0.84999 0.05
0.15 0.89999 -0.2
0.1 0.89999 -0.2
0.15 0.94999 -0.2
0.1 0.94999 -0.2
0.2 0.94999 -0.2
0.2 0.89999 -0.2
0.1 0.89999 -0.1
0.1 0.94999 -0.15
0.1 0.94999 -0.1
0.1 0.89999 -0.15
0.15 0.94999 -0.1
0.15 0.89999 -0.1
0.15 0.89999 -0.15
0.15 0.94999 -0.15
0.2 0.89999 -0.15
0.2 0.89999 -0.1
0.2 0.94999 -0.15
0.2 0.94999 -0.1
0.15 0.89999 -0.05
0.1 0.89999 -0.05
0.15 0.94999 -0.05
0.1 0.94999 -0.05
0.2 0.89999 -0.05
0.2 0.94999 -0.05
0.15 0.89999 -8.95779e-14
0.15 0.94999 0.05
0.15 0.94999 -1.6129e-13
0.1 0.89999 0.05
0.15 0.89999 0.05
0.1 0.94999 0.05
0.1 0.94999 -5.76378e-14
0.1 0.89999 1.59578e-14
0.2 0.94999 3.44764e-14
0.2 0.94999 0.05
0.2 0.89999 1.21203e-14
0.2 0.89999 0.05
-0.2 0.54999 0.1
-0.2 0.54999 0.15
-0.1 0.54999 0.1
-0.1 0.54999 0.15
-0.15 0.54999 0.1
-0.15 0.54999 0.15
-0.2 0.59999 0.1
-0.2 0.64999 0.15
-0.2 0.64999 0.1
-0.2 0.59999 0.15
-0.1 0.59999 0.15
-0.1 0.59999 0.1
-0.15 0.64999 0.15
-0.15 0.59999 0.15
-0.1 0.64999 0.15
-0.1 0.64999 0.1
-0.15 0.64999 0.1
-0.15 0.59999 0.1
-0.2 0.54999 0.2
-0.15 0.54999 0.2
-0.1 0.54999 0.2
-0.2 0.59999 0.2
-0.2 0.64999 0.2
-0.1 0.59999 0.2
-0.1 0.64999 0.2
-0.15 0.59999 0.2
-0.15 0.64999 0.2
-0.05 0.54999 0.1
-0.05 0.54999 0.15
-1.4297e-13 0.54999 0.15
-2.73149e-15 0.54999 0.1
0.05 0.54999 0.1
0.05 0.54999 0.15
-0.05 0.59999 0.1
-0.05 0.59999 0.15
-0.05 0.64999 0.15
-0.05 0.64999 0.1
-1.76559e-14 0.64999 0.1
0.05 0.59999 0.1
0.05 0.59999 0.15
0.05 0.64999 0.1
-1.0685e-13 0.59999 0.1
0.05 0.64999 0.15
-2.19326e-13 0.59999 0.15
-9.27101e-14 0.64999 0.15
-0.05 0.54999 0.2
-9.0617e-14 0.54999 0.2
0.05 0.54999 0.2
-0.05 0.59999 0.2
-0.05 0.64999 0.2
-6.4448e-14 0.59999 0.2
0.05 0.59999 0.2
0.05 0.64999 0.2
1.00191e-13 0.64999 0.2
-0.2 0.74999 0.15
-0.2 0.69999 0.1
-0.2 0.74999 0.1
-0.2 0.69999 0.15
-0.15 0.69999 0.1
-0.15 0.74999 0.15
-0.15 0.74999 0.1
-0.1 0.69999 0.15
-0.15 0.69999 0.15
-0.1 0.74999 0.1
-0.1 0.74999 0.15
-0.1 0.69999 0.1
-0.2 0.79999 0.15
-0.2 0.84999 0.15
-0.2 0.84999 0.1
-0.2 0.79999 0.1
-0.1 0.79999 0.1
-0.1 0.84999 0.15
-0.15 0.79999 0.15
-0.15 0.79999 0.1
-0.15 0.84999 0.15
-0.1 0.84999 0.1
-0.1 0.79999 0.15
-0.15 0.84999 0.1
-0.2 0.69999 0.2
-0.2 0.74999 0.2
-0.1 0.69999 0.2
-0.15 0.69999 0.2
-0.15 0.74999 0.2
-0.1 0.74999 0.2
-0.2 0.79999 0.2
-0.2 0.84999 0.2
-0.1 0.79999 0.2
-0.15 0.84999 0.2
-0.15 0.79999 0.2
-0.1 0.84999 0.2
-0.05 0.74999 0.15
-0.05 0.69999 0.1
-0.05 0.69999 0.15
-0.05 0.74999 0.1
-9.90505e-14 0.69999 0.15
0.05 0.74999 0.15
0.05 0.69999 0.15
-9.90503e-14 0.74999 0.15
-1.71898e-15 0.74999 0.1
0.05 0.69999 0.1
-6.12435e-15 0.69999 0.1
0.05 0.74999 0.1
-0.05 0.84999 0.15
-0.05 0.79999 0.15
-0.05 0.84999 0.1
-0.05 0.79999 0.1
0.05 0.79999 0.15
-9.90508e-14 0.79999 0.15
0.05 0.84999 0.1
-5.01824e-16 0.79999 0.1
0.05 0.79999 0.1
0.05 0.84999 0.15
-9.98219e-14 0.84999 0.15
-1.7437e-15 0.84999 0.1
-0.05 0.74999 0.2
-0.05 0.69999 0.2
0.05 0.74999 0.2
0.05 0.69999 0.2
2.02226e-15 0.74999 0.2
7.20254e-15 0.69999 0.2
-0.05 0.79999 0.2
-0.05 0.84999 0.2
-7.29164e-16 0.84999 0.2
0.05 0.79999 0.2
5.89766e-16 0.79999 0.2
0.05 0.84999 0.2
-0.2 0.89999 0.15
-0.2 0.89999 0.1
-0.2 0.94999 0.15
-0.2 0.94999 0.1
-0.1 0.89999 0.15
-0.1 0.89999 0.1
-0.15 0.89999 0.1
-0.15 0.94999 0.1
-0.1 0.94999 0.15
-0.15 0.89999 0.15
-0.1 0.94999 0.1
-0.15 0.94999 0.15
-0.2 0.94999 0.2
-0.2 0.89999 0.2
-0.1 0.94999 0.2
-0.1 0.89999 0.2
-0.15 0.94999 0.2
-0.15 0.89999 0.2
-0.05 0.89999 0.15
-0.05 0.94999 0.1
-0.05 0.94999 0.15
-0.05 0.89999 0.1
-1.39472e-13 0.94999 0.15
3.23842e-16 0.94999 0.1
0.05 0.89999 0.1
0.05 0.89999 0.15
0.05 0.94999 0.1
-3.57351e-15 0.89999 0.1
-1.04446e-13 0.89999 0.15
0.05 0.94999 0.15
-0.05 0.94999 0.2
-0.05 0.89999 0.2
0.05 0.94999 0.2
1.97295e-14 0.89999 0.2
0.05 0.89999 0.2
2.90179e-15 0.94999 0.2
-0.2 0.54999 -0.2
-0.15 0.54999 -0.2
-0.1 0.54999 -0.2
-0.2 0.59999 -0.2
-0.2 0.64999 -0.2
-0.1 0.59999 -0.2
-0.1 0.64999 -0.2
-0.15 0.59999 -0.2
-0.15 0.64999 -0.2
-0.2 0.54999 -0.1
-0.2 0.54999 -0.15
-0.1 0.54999 -0.15
-0.15 0.54999 -0.1
-0.1 0.54999 -0.1
-0.15 0.54999 -0.15
-0.2 0.59999 -0.1
-0.2 0.59999 -0.15
-0.2 0.64999 -0.1
-0.2 0.64999 -0.15
-0.1 0.59999 -0.15
-0.1 0.59999 -0.1
-0.1 0.64999 -0.15
-0.1 0.64999 -0.1
-0.15 0.59999 -0.15
-0.15 0.59999 -0.1
-0.15 0.64999 -0.15
-0.15 0.64999 -0.1
-0.05 0.54999 -0.2
0.05 0.54999 -0.2
-2.64441e-14 0.54999 -0.2
-0.05 0.59999 -0.2
-0.05 0.64999 -0.2
-1.90861e-13 0.59999 -0.2
0.05 0.64999 -0.2
-2.9808e-14 0.64999 -0.2
0.05 0.59999 -0.2
-0.05 0.54999 -0.1
-0.05 0.54999 -0.15
2.32133e-14 0.54999 -0.1
1.69604e-13 0.54999 -0.15
0.05 0.54999 -0.15
0.05 0.54999 -0.1
-0.05 0.59999 -0.15
-0.05 0.59999 -0.1
-0.05 0.64999 -0.15
-0.05 0.64999 -0.1
1.03984e-13 0.64999 -0.15
0.05 0.59999 -0.1
-9.24817e-14 0.59999 -0.1
-1.12073e-14 0.59999 -0.15
0.05 0.64999 -0.15
2.46385e-14 0.64999 -0.1
0.05 0.59999 -0.15
0.05 0.64999 -0.1
-0.2 0.69999 -0.2
-0.2 0.74999 -0.2
-0.1 0.69999 -0.2
-0.15 0.74999 -0.2
-0.1 0.74999 -0.2
-0.15 0.69999 -0.2
-0.2 0.79999 -0.2
-0.2 0.84999 -0.2
-0.1 0.84999 -0.2
-0.1 0.79999 -0.2
-0.15 0.84999 -0.2
-0.15 0.79999 -0.2
-0.2 0.74999 -0.15
-0.2 0.74999 -0.1
-0.2 0.69999 -0.1
-0.2 0.69999 -0.15
-0.15 0.74999 -0.1
-0.15 0.74999 -0.15
-0.1 0.74999 -0.1
-0.1 0.74999 -0.15
-0.15 0.69999 -0.15
-0.15 0.69999 -0.1
-0.1 0.69999 -0.1
-0.1 0.69999 -0.15
-0.2 0.84999 -0.15
-0.2 0.79999 -0.1
-0.2 0.79999 -0.15
-0.2 0.84999 -0.1
-0.15 0.84999 -0.15
-0.15 0.79999 -0.15
-0.1 0.84999 -0.1
-0.1 0.84999 -0.15
-0.1 0.79999 -0.1
-0.1 0.79999 -0.15
-0.15 0.79999 -0.1
-0.15 0.84999 -0.1
-0.05 0.74999 -0.2
-0.05 0.69999 -0.2
0.05 0.69999 -0.2
0.05 0.74999 -0.2
-1.16274e-14 0.69999 -0.2
-8.97221e-15 0.74999 -0.2
-0.05 0.84999 -0.2
-0.05 0.79999 -0.2
0.05 0.79999 -0.2
-7.54077e-15 0.79999 -0.2
0.05 0.84999 -0.2
-6.22148e-15 0.84999 -0.2
-0.05 0.74999 -0.1
-0.05 0.74999 -0.15
-0.05 0.69999 -0.1
-0.05 0.69999 -0.15
9.90511e-14 0.74999 -0.15
7.62977e-15 0.74999 -0.1
9.88703e-15 0.69999 -0.1
9.90508e-14 0.69999 -0.15
0.05 0.69999 -0.15
0.05 0.69999 -0.1
0.05 0.74999 -0.15
0.05 0.74999 -0.1
-0.05 0.79999 -0.15
-0.05 0.79999 -0.1
-0.05 0.84999 -0.15
-0.05 0.84999 -0.1
7.43089e-15 0.84999 -0.1
9.90506e-14 0.79999 -0.15
6.41175e-15 0.79999 -0.1
9.9928e-14 0.84999 -0.15
0.05 0.84999 -0.1
0.05 0.84999 -0.15
0.05 0.79999 -0.1
0.05 0.79999 -0.15
-0.2 0.54999 -0.05
-0.1 0.54999 -0.05
-0.15 0.54999 -0.05
-0.2 0.59999 -0.05
-0.2 0.64999 -0.05
-0.15 0.64999 -0.05
-0.15 0.59999 -0.05
-0.1 0.64999 -0.05
-0.1 0.59999 -0.05
-0.2 0.54999 0.05
-0.2 0.54999 -4.30069e-14
-0.1 0.54999 0.05
-0.15 0.54999 1.14685e-13
-0.15 0.54999 0.05
-0.1 0.54999 5.79978e-15
-0.2 0.64999 0.05
-0.2 0.59999 -1.99861e-13
-0.2 0.64999 -2.87359e-15
-0.2 0.59999 0.05
-0.15 0.59999 0.05
-0.15 0.64999 0.05
-0.15 0.64999 1.50211e-13
-0.1 0.64999 0.05
-0.1 0.64999 2.84632e-14
-0.1 0.59999 0.05
-0.1 0.59999 -7.17708e-14
-0.15 0.59999 7.89979e-16
-0.05 0.54999 -0.05
0.05 0.54999 -0.05
-1.77001e-15 0.54999 -0.05
-0.05 0.59999 -0.05
-0.05 0.64999 -0.05
0.05 0.64999 -0.05
1.50468e-15 0.64999 -0.05
-1.15112e-13 0.59999 -0.05
0.05 0.59999 -0.05
-0.05 0.54999 -1.38152e-14
-0.05 0.54999 0.05
0.05 0.54999 -1.38151e-14
0.05 0.54999 0.05
-6.06561e-15 0.54999 0.05
-6.06568e-15 0.54999 -5.69433e-14
-0.05 0.59999 -2.5223e-14
-0.05 0.59999 0.05
-0.05 0.64999 1.17471e-14
-0.05 0.64999 0.05
0.05 0.64999 0.05
0.05 0.64999 1.17472e-14
-1.15112e-13 0.59999 0.05
0.05 0.59999 0.05
0.05 0.59999 -9.90501e-14
-1.04538e-13 0.59999 -6.82306e-14
5.15766e-15 0.64999 0.05
5.15742e-15 0.64999 4.84198e-14
-0.2 0.69999 -0.05
-0.2 0.74999 -0.05
-0.15 0.74999 -0.05
-0.1 0.74999 -0.05
-0.1 0.69999 -0.05
-0.15 0.69999 -0.05
-0.2 0.84999 -0.05
-0.2 0.79999 -0.05
-0.15 0.84999 -0.05
-0.1 0.84999 -0.05
-0.1 0.79999 -0.05
-0.15 0.79999 -0.05
-0.2 0.69999 -1.8535e-14
-0.2 0.74999 -1.85348e-14
-0.2 0.74999 0.05
-0.2 0.69999 0.05
-0.15 0.69999 9.90509e-14
-0.15 0.74999 9.90503e-14
-0.15 0.74999 0.05
-0.1 0.69999 1.57607e-14
-0.1 0.69999 0.05
-0.1 0.74999 1.57605e-14
-0.1 0.74999 0.05
-0.15 0.69999 0.05
-0.2 0.79999 -1.85352e-14
-0.2 0.84999 0.05
-0.2 0.79999 0.05
-0.2 0.84999 -1.67621e-14
-0.15 0.84999 0.05
-0.15 0.79999 9.90506e-14
-0.15 0.79999 0.05
-0.1 0.79999 0.05
-0.1 0.84999 1.5833e-14
-0.1 0.84999 0.05
-0.1 0.79999 1.57604e-14
-0.15 0.84999 9.97297e-14
-0.05 0.74999 -0.05
-0.05 0.69999 -0.05
0.05 0.69999 -0.05
3.81404e-19 0.74999 -0.05
0.05 0.74999 -0.05
4.69393e-20 0.69999 -0.05
-0.05 0.79999 -0.05
-0.05 0.84999 -0.05
9.11516e-21 0.84999 -0.05
0.05 0.79999 -0.05
0.05 0.84999 -0.05
-1.005e-19 0.79999 -0.05
-0.05 0.69999 0.05
-0.05 0.74999 0.05
-0.05 0.69999 -1.34749e-20
-0.05 0.74999 1.19083e-19
0.05 0.69999 0.05
0.05 0.74999 -2.94566e-20
0.05 0.74999 0.05
5.28842e-20 0.69999 0.05
5.27227e-20 0.69999 -3.25856e-19
0.05 0.69999 -3.84984e-19
7.11665e-20 0.74999 0.05
2.60512e-19 0.74999 -1.67913e-19
-0.05 0.79999 -2.81412e-19
-0.05 0.79999 0.05
-0.05 0.84999 0.05
-0.05 0.84999 7.4693e-20
0.05 0.79999 -2.27545e-19
0.05 0.79999 0.05
-4.70126e-17 0.84999 0.05
0.05 0.84999 1.81309e-16
0.05 0.84999 0.05
-2.02181e-23 0.84999 3.20807e-19
-5.9616e-20 0.79999 -1.01631e-19
-2.3133e-20 0.79999 0.05
-0.2 0.94999 -0.2
-0.2 0.89999 -0.2
-0.1 0.94999 -0.2
-0.15 0.89999 -0.2
-0.15 0.94999 -0.2
-0.1 0.89999 -0.2
-0.2 0.89999 -0.15
-0.2 0.89999 -0.1
-0.2 0.94999 -0.1
-0.2 0.94999 -0.15
-0.1 0.89999 -0.1
-0.1 0.94999 -0.1
-0.1 0.94999 -0.15
-0.15 0.94999 -0.15
-0.15 0.89999 -0.1
-0.15 0.94999 -0.1
-0.15 0.89999 -0.15
-0.1 0.89999 -0.15
-0.05 0.89999 -0.2
-0.05 0.94999 -0.2
0.05 0.89999 -0.2
0.05 0.94999 -0.2
-2.75644e-14 0.89999 -0.2
-1.34433e-14 0.94999 -0.2
-0.05 0.89999 -0.1
-0.05 0.89999 -0.15
-0.05 0.94999 -0.15
-0.05 0.94999 -0.1
1.39348e-13 0.94999 -0.15
0.05 0.89999 -0.15
0.05 0.94999 -0.15
0.05 0.94999 -0.1
0.05 0.89999 -0.1
1.02748e-13 0.89999 -0.15
6.52695e-15 0.89999 -0.1
8.8606e-15 0.94999 -0.1
-0.2 0.89999 -0.05
-0.2 0.94999 -0.05
-0.15 0.89999 -0.05
-0.15 0.94999 -0.05
-0.1 0.94999 -0.05
-0.1 0.89999 -0.05
-0.2 0.89999 0.05
-0.2 0.94999 0.05
-0.2 0.89999 -4.08965e-14
-0.2 0.94999 -2.79774e-14
-0.1 0.94999 0.05
-0.1 0.94999 2.18216e-14
-0.1 0.89999 1.5681e-14
-0.1 0.89999 0.05
-0.15 0.94999 0.05
-0.15 0.89999 0.05
-0.15 0.89999 9.64459e-14
-0.15 0.94999 1.39616e-13
-0.05 0.89999 -0.05
-0.05 0.94999 -0.05
-1.11067e-21 0.94999 -0.05
5.9358e-20 0.89999 -0.05
0.05 0.89999 -0.05
0.05 0.94999 -0.05
-0.05 0.89999 0.05
-0.05 0.94999 0.05
-0.05 0.94999 3.332e-21
-0.05 0.89999 2.25308e-19
-5.67624e-16 0.89999 0.05
-3.64625e-20 0.89999 5.8239e-20
0.05 0.89999 2.18773e-15
0.05 0.94999 0.05
5.53252e-17 0.94999 0.05
0.05 0.94999 -2.13119e-16
-4.47916e-20 0.94999 4.593e-20
0.05 0.89999 0.05
