ply
format ascii 1.0
element vertex 343
property float x
property float y
property float z
end_header
0.15 0.14999 0.15
0.15 0.14999 0.2
0.15 0.14999 0.25
0.15 0.14999 0.3
0.15 0.14999 0.35
0.15 0.14999 0.4
0.15 0.14999 0.45
0.15 0.19999 0.15
0.15 0.19999 0.2
0.15 0.19999 0.25
0.15 0.19999 0.3
0.15 0.19999 0.35
0.15 0.19999 0.4
0.15 0.19999 0.45
0.15 0.24999 0.15
0.15 0.24999 0.2
0.15 0.24999 0.25
0.15 0.24999 0.3
0.15 0.24999 0.35
0.15 0.24999 0.4
0.15 0.24999 0.45
0.15 0.29999 0.15
0.15 0.29999 0.2
0.15 0.29999 0.25
0.15 0.29999 0.3
0.15 0.29999 0.35
0.15 0.29999 0.4
0.15 0.29999 0.45
0.15 0.34999 0.15
0.15 0.34999 0.2
0.15 0.34999 0.25
0.15 0.34999 0.3
0.15 0.34999 0.35
0.15 0.34999 0.4
0.15 0.34999 0.45
0.15 0.39999 0.15
0.15 0.39999 0.2
0.15 0.39999 0.25
0.15 0.39999 0.3
0.15 0.39999 0.35
0.15 0.39999 0.4
0.15 0.39999 0.45
0.15 0.44999 0.15
0.15 0.44999 0.2
0.15 0.44999 0.25
0.15 0.44999 0.3
0.15 0.44999 0.35
0.15 0.44999 0.4
0.15 0.44999 0.45
0.2 0.14999 0.15
0.2 0.14999 0.2
0.2 0.14999 0.25
0.2 0.14999 0.3
0.2 0.14999 0.35
0.2 0.14999 0.4
0.2 0.14999 0.45
0.2 0.19999 0.15
0.2 0.19999 0.2
0.2 0.19999 0.25
0.2 0.19999 0.3
0.2 0.19999 0.35
0.2 0.19999 0.4
0.2 0.19999 0.45
0.2 0.24999 0.15
0.2 0.24999 0.2
0.2 0.24999 0.25
0.2 0.24999 0.3
0.2 0.24999 0.35
0.2 0.24999 0.4
0.2 0.24999 0.45
0.2 0.29999 0.15
0.2 0.29999 0.2
0.2 0.29999 0.25
0.2 0.29999 0.3
0.2 0.29999 0.35
0.2 0.29999 0.4
0.2 0.29999 0.45
0.2 0.34999 0.15
0.2 0.34999 0.2
0.2 0.34999 0.25
0.2 0.34999 0.3
0.2 0.34999 0.35
0.2 0.34999 0.4
0.2 0.34999 0.45
0.2 0.39999 0.15
0.2 0.39999 0.2
0.2 0.39999 0.25
0.2 0.39999 0.3
0.2 0.39999 0.35
0.2 0.39999 0.4
0.2 0.39999 0.45
0.2 0.44999 0.15
0.2 0.44999 0.2
0.2 0.44999 0.25
0.2 0.44999 0.3
0.2 0.44999 0.35
0.2 0.44999 0.4
0.2 0.44999 0.45
0.25 0.14999 0.15
0.25 0.14999 0.2
0.25 0.14999 0.25
0.25 0.14999 0.3
0.25 0.14999 0.35
0.25 0.14999 0.4
0.25 0.14999 0.45
0.25 0.19999 0.15
0.25 0.19999 0.2
0.25 0.19999 0.25
0.25 0.19999 0.3
0.25 0.19999 0.35
0.25 0.19999 0.4
0.25 0.19999 0.45
0.25 0.24999 0.15
0.25 0.24999 0.2
0.25 0.24999 0.25
0.25 0.24999 0.3
0.25 0.24999 0.35
0.25 0.24999 0.4
0.25 0.24999 0.45
0.25 0.29999 0.15
0.25 0.29999 0.2
0.25 0.29999 0.25
0.25 0.29999 0.3
0.25 0.29999 0.35
0.25 0.29999 0.4
0.25 0.29999 0.45
0.25 0.34999 0.15
0.25 0.34999 0.2
0.25 0.34999 0.25
0.25 0.34999 0.3
0.25 0.34999 0.35
0.25 0.34999 0.4
0.25 0.34999 0.45
0.25 0.39999 0.15
0.25 0.39999 0.2
0.25 0.39999 0.25
0.25 0.39999 0.3
0.25 0.39999 0.35
0.25 0.39999 0.4
0.25 0.39999 0.45
0.25 0.44999 0.15
0.25 0.44999 0.2
0.25 0.44999 0.25
0.25 0.44999 0.3
0.25 0.44999 0.35
0.25 0.44999 0.4
0.25 0.44999 0.45
0.3 0.14999 0.15
0.3 0.14999 0.2
0.3 0.14999 0.25
0.3 0.14999 0.3
0.3 0.14999 0.35
0.3 0.14999 0.4
0.3 0.14999 0.45
0.3 0.19999 0.15
0.3 0.19999 0.2
0.3 0.19999 0.25
0.3 0.19999 0.3
0.3 0.19999 0.35
0.3 0.19999 0.4
0.3 0.19999 0.45
0.3 0.24999 0.15
0.3 0.24999 0.2
0.3 0.24999 0.25
0.3 0.24999 0.3
0.3 0.24999 0.35
0.3 0.24999 0.4
0.3 0.24999 0.45
0.3 0.29999 0.15
0.3 0.29999 0.2
0.3 0.29999 0.25
0.3 0.29999 0.3
0.3 0.29999 0.35
0.3 0.29999 0.4
0.3 0.29999 0.45
0.3 0.34999 0.15
0.3 0.34999 0.2
0.3 0.34999 0.25
0.3 0.34999 0.3
0.3 0.34999 0.35
0.3 0.34999 0.4
0.3 0.34999 0.45
0.3 0.39999 0.15
0.3 0.39999 0.2
0.3 0.39999 0.25
0.3 0.39999 0.3
0.3 0.39999 0.35
0.3 0.39999 0.4
0.3 0.39999 0.45
0.3 0.44999 0.15
0.3 0.44999 0.2
0.3 0.44999 0.25
0.3 0.44999 0.3
0.3 0.44999 0.35
0.3 0.44999 0.4
0.3 0.44999 0.45
0.35 0.14999 0.15
0.35 0.14999 0.2
0.35 0.14999 0.25
0.35 0.14999 0.3
0.35 0.14999 0.35
0.35 0.14999 0.4
0.35 0.14999 0.45
0.35 0.19999 0.15
0.35 0.19999 0.2
0.35 0.19999 0.25
0.35 0.19999 0.3
0.35 0.19999 0.35
0.35 0.19999 0.4
0.35 0.19999 0.45
0.35 0.24999 0.15
0.35 0.24999 0.2
0.35 0.24999 0.25
0.35 0.24999 0.3
0.35 0.24999 0.35
0.35 0.24999 0.4
0.35 0.24999 0.45
0.35 0.29999 0.15
0.35 0.29999 0.2
0.35 0.29999 0.25
0.35 0.29999 0.3
0.35 0.29999 0.35
0.35 0.29999 0.4
0.35 0.29999 0.45
0.35 0.34999 0.15
0.35 0.34999 0.2
0.35 0.34999 0.25
0.35 0.34999 0.3
0.35 0.34999 0.35
0.35 0.34999 0.4
0.35 0.34999 0.45
0.35 0.39999 0.15
0.35 0.39999 0.2
0.35 0.39999 0.25
0.35 0.39999 0.3
0.35 0.39999 0.35
0.35 0.39999 0.4
0.35 0.39999 0.45
0.35 0.44999 0.15
0.35 0.44999 0.2
0.35 0.44999 0.25
0.35 0.44999 0.3
0.35 0.44999 0.35
0.35 0.44999 0.4
0.35 0.44999 0.45
0.4 0.14999 0.15
0.4 0.14999 0.2
0.4 0.14999 0.25
0.4 0.14999 0.3
0.4 0.14999 0.35
0.4 0.14999 0.4
0.4 0.14999 0.45
0.4 0.19999 0.15
0.4 0.19999 0.2
0.4 0.19999 0.25
0.4 0.19999 0.3
0.4 0.19999 0.35
0.4 0.19999 0.4
0.4 0.19999 0.45
0.4 0.24999 0.15
0.4 0.24999 0.2
0.4 0.24999 0.25
0.4 0.24999 0.3
0.4 0.24999 0.35
0.4 0.24999 0.4
0.4 0.24999 0.45
0.4 0.29999 0.15
0.4 0.29999 0.2
0.4 0.29999 0.25
0.4 0.29999 0.3
0.4 0.29999 0.35
0.4 0.29999 0.4
0.4 0.29999 0.45
0.4 0.34999 0.15
0.4 0.34999 0.2
0.4 0.34999 0.25
0.4 0.34999 0.3
0.4 0.34999 0.35
0.4 0.34999 0.4
0.4 0.34999 0.45
0.4 0.39999 0.15
0.4 0.39999 0.2
0.4 0.39999 0.25
0.4 0.39999 0.3
0.4 0.39999 0.35
0.4 0.39999 0.4
0.4 0.39999 0.45
0.4 0.44999 0.15
0.4 0.44999 0.2
0.4 0.44999 0.25
0.4 0.44999 0.3
0.4 0.44999 0.35
0.4 0.44999 0.4
0.4 0.44999 0.45
0.45 0.14999 0.15
0.45 0.14999 0.2
0.45 0.14999 0.25
0.45 0.14999 0.3
0.45 0.14999 0.35
0.45 0.14999 0.4
0.45 0.14999 0.45
0.45 0.19999 0.15
0.45 0.19999 0.2
0.45 0.19999 0.25
0.45 0.19999 0.3
0.45 0.19999 0.35
0.45 0.19999 0.4
0.45 0.19999 0.45
0.45 0.24999 0.15
0.45 0.24999 0.2
0.45 0.24999 0.25
0.45 0.24999 0.3
0.45 0.24999 0.35
0.45 0.24999 0.4
0.45 0.24999 0.45
0.45 0.29999 0.15
0.45 0.29999 0.2
0.45 0.29999 0.25
0.45 0.29999 0.3
0.45 0.29999 0.35
0.45 0.29999 0.4
0.45 0.29999 0.45
0.45 0.34999 0.15
0.45 0.34999 0.2
0.45 0.34999 0.25
0.45 0.34999 0.3
0.45 0.34999 0.35
0.45 0.34999 0.4
0.45 0.34999 0.45
0.45 0.39999 0.15
0.45 0.39999 0.2
0.45 0.39999 0.25
0.45 0.39999 0.3
0.45 0.39999 0.35
0.45 0.39999 0.4
0.45 0.39999 0.45
0.45 0.44999 0.15
0.45 0.44999 0.2
0.45 0.44999 0.25
0.45 0.44999 0.3
0.45 0.44999 0.35
0.45 0.44999 0.4
0.45 0.44999 0.45
